{
  "accessors": [
    {
      "bufferView": 2,
      "componentType": 5126,
      "count": 49,
      "max": [
        21.228801727294922,
        6.454806804656982,
        18.981914520263672
      ],
      "min": [
        -16.734792709350586,
        6.107969760894775,
        -18.981201171875
      ],
      "type": "VEC3"
    },
    {
      "bufferView": 2,
      "byteOffset": 588,
      "componentType": 5126,
      "count": 49,
      "max": [
        0.020384423434734344,
        1.0,
        0.021215632557868958
      ],
      "min": [
        -0.03440828248858452,
        0.99929279088974,
        -0.03753969445824623
      ],
      "type": "VEC3"
    },
    {
      "bufferView": 1,
      "componentType": 5126,
      "count": 49,
      "max": [
        1.0,
        0.9999998807907104
      ],
      "min": [
        -2.9802322387695313e-08,
        -5.960464477539063e-08
      ],
      "type": "VEC2"
    },
    {
      "bufferView": 0,
      "componentType": 5125,
      "count": 216,
      "type": "SCALAR"
    },
    {
      "bufferView": 2,
      "byteOffset": 1176,
      "componentType": 5126,
      "count": 152,
      "max": [
        21.228801727294922,
        6.1335601806640625,
        18.981914520263672
      ],
      "min": [
        -16.734792709350586,
        5.267217636108398,
        -18.981201171875
      ],
      "type": "VEC3"
    },
    {
      "bufferView": 2,
      "byteOffset": 3000,
      "componentType": 5126,
      "count": 152,
      "max": [
        1.0,
        0.0,
        1.0
      ],
      "min": [
        -1.0,
        -1.0,
        -1.0
      ],
      "type": "VEC3"
    },
    {
      "bufferView": 1,
      "byteOffset": 392,
      "componentType": 5126,
      "count": 152,
      "max": [
        0.9990020394325256,
        0.8950422406196594
      ],
      "min": [
        0.000998009229078889,
        0.0008941632113419473
      ],
      "type": "VEC2"
    },
    {
      "bufferView": 0,
      "byteOffset": 864,
      "componentType": 5125,
      "count": 216,
      "type": "SCALAR"
    },
    {
      "bufferView": 2,
      "byteOffset": 4824,
      "componentType": 5126,
      "count": 65532,
      "max": [
        11.421238899230957,
        9.99100112915039,
        9.929754257202148
      ],
      "min": [
        -6.91347599029541,
        -0.33772099018096924,
        -10.14483642578125
      ],
      "type": "VEC3"
    },
    {
      "bufferView": 2,
      "byteOffset": 791208,
      "componentType": 5126,
      "count": 65532,
      "max": [
        1.0,
        1.0,
        0.9999768733978271
      ],
      "min": [
        -1.0,
        -1.0,
        -0.9999988675117493
      ],
      "type": "VEC3"
    },
    {
      "bufferView": 1,
      "byteOffset": 1608,
      "componentType": 5126,
      "count": 65532,
      "max": [
        0.9989640116691589,
        0.9995049834251404
      ],
      "min": [
        0.0006169999833218753,
        0.0005089999758638442
      ],
      "type": "VEC2"
    },
    {
      "bufferView": 0,
      "byteOffset": 1728,
      "componentType": 5125,
      "count": 326169,
      "type": "SCALAR"
    },
    {
      "bufferView": 2,
      "byteOffset": 1577592,
      "componentType": 5126,
      "count": 65533,
      "max": [
        6.810394763946533,
        11.096874237060547,
        8.857734680175781
      ],
      "min": [
        -8.846784591674805,
        -0.2926490008831024,
        -9.177227020263672
      ],
      "type": "VEC3"
    },
    {
      "bufferView": 2,
      "byteOffset": 2363988,
      "componentType": 5126,
      "count": 65533,
      "max": [
        1.0,
        1.0,
        0.9999998807907104
      ],
      "min": [
        -1.0,
        -1.0,
        -0.9999991059303284
      ],
      "type": "VEC3"
    },
    {
      "bufferView": 1,
      "byteOffset": 525864,
      "componentType": 5126,
      "count": 65533,
      "max": [
        0.9989719986915588,
        0.9994990229606628
      ],
      "min": [
        0.0004900000058114529,
        0.0005189999938011169
      ],
      "type": "VEC2"
    },
    {
      "bufferView": 0,
      "byteOffset": 1306404,
      "componentType": 5125,
      "count": 323631,
      "type": "SCALAR"
    },
    {
      "bufferView": 2,
      "byteOffset": 3150384,
      "componentType": 5126,
      "count": 48572,
      "max": [
        7.1628851890563965,
        6.14619779586792,
        4.975835800170898
      ],
      "min": [
        0.19652099907398224,
        -0.08566699922084808,
        -4.122148036956787
      ],
      "type": "VEC3"
    },
    {
      "bufferView": 2,
      "byteOffset": 3733248,
      "componentType": 5126,
      "count": 48572,
      "max": [
        0.9999977350234985,
        1.0,
        0.9999986290931702
      ],
      "min": [
        -0.9999979734420776,
        -0.9999993443489075,
        -0.9999828934669495
      ],
      "type": "VEC3"
    },
    {
      "bufferView": 1,
      "byteOffset": 1050128,
      "componentType": 5126,
      "count": 48572,
      "max": [
        0.9989100098609924,
        0.9995080232620239
      ],
      "min": [
        0.0005080000264570117,
        0.0005050000036135316
      ],
      "type": "VEC2"
    },
    {
      "bufferView": 0,
      "byteOffset": 2600928,
      "componentType": 5125,
      "count": 242607,
      "type": "SCALAR"
    }
  ],
  "asset": {
    "extras": {
      "author": "Ali Rahimi (https://sketchfab.com/Free-Radical-666)",
      "license": "CC-BY-4.0 (http://creativecommons.org/licenses/by/4.0/)",
      "source": "https://sketchfab.com/3d-models/spaceship-398c7d162ae040be91dcab5ccee1ffde",
      "title": "Spaceship"
    },
    "generator": "Sketchfab-16.29.0",
    "version": "2.0"
  },
  "bufferViews": [
    {
      "buffer": 0,
      "byteLength": 3571356,
      "name": "floatBufferViews",
      "target": 34963
    },
    {
      "buffer": 0,
      "byteLength": 1438704,
      "byteOffset": 3571356,
      "byteStride": 8,
      "name": "floatBufferViews",
      "target": 34962
    },
    {
      "buffer": 0,
      "byteLength": 4316112,
      "byteOffset": 5010060,
      "byteStride": 12,
      "name": "floatBufferViews",
      "target": 34962
    }
  ],
  "buffers": [
    {
      "byteLength": 9326172,
      "uri": "scene.bin"
    }
  ],
  "extensionsUsed": [
    "KHR_materials_specular",
    "KHR_materials_emissive_strength"
  ],
  "images": [
    {
      "uri": "textures/Ground_1_baseColor.png"
    },
    {
      "uri": "textures/Ground_1_metallicRoughness.png"
    },
    {
      "uri": "textures/Spaceship_baseColor.jpeg"
    },
    {
      "uri": "textures/Spaceship_metallicRoughness.png"
    },
    {
      "uri": "textures/Spaceship_emissive.jpeg"
    },
    {
      "uri": "textures/Spaceship_specularf0.png"
    }
  ],
  "materials": [
    {
      "alphaMode": "BLEND",
      "extensions": {
        "KHR_materials_specular": {
          "specularColorFactor": [
            1.0,
            1.0,
            1.0
          ],
          "specularFactor": 0.0
        }
      },
      "name": "Ground_1",
      "occlusionTexture": {
        "index": 1
      },
      "pbrMetallicRoughness": {
        "baseColorFactor": [
          0.0038,
          0.0038,
          0.0038,
          1.0
        ],
        "baseColorTexture": {
          "index": 0
        },
        "metallicFactor": 0.0,
        "metallicRoughnessTexture": {
          "index": 1
        }
      }
    },
    {
      "alphaMode": "BLEND",
      "doubleSided": true,
      "extensions": {
        "KHR_materials_specular": {
          "specularColorFactor": [
            1.0,
            1.0,
            1.0
          ],
          "specularFactor": 0.0
        }
      },
      "name": "Ground_2",
      "pbrMetallicRoughness": {
        "baseColorFactor": [
          0.04,
          0.04,
          0.04,
          0.0
        ]
      }
    },
    {
      "doubleSided": true,
      "emissiveFactor": [
        1.0,
        1.0,
        1.0
      ],
      "emissiveTexture": {
        "index": 4
      },
      "extensions": {
        "KHR_materials_emissive_strength": {
          "emissiveStrength": 10.0
        },
        "KHR_materials_specular": {
          "specularColorFactor": [
            1.0,
            1.0,
            1.0
          ],
          "specularFactor": 0.05,
          "specularTexture": {
            "index": 5
          }
        }
      },
      "name": "Spaceship",
      "occlusionTexture": {
        "index": 3
      },
      "pbrMetallicRoughness": {
        "baseColorFactor": [
          0.08,
          0.08,
          0.08,
          1.0
        ],
        "baseColorTexture": {
          "index": 2
        },
        "metallicFactor": 0.8,
        "metallicRoughnessTexture": {
          "index": 3
        }
      }
    }
  ],
  "meshes": [
    {
      "name": "Ground_1_Ground_1__0",
      "primitives": [
        {
          "attributes": {
            "NORMAL": 1,
            "POSITION": 0,
            "TEXCOORD_0": 2
          },
          "indices": 3,
          "material": 0,
          "mode": 4
        }
      ]
    },
    {
      "name": "Ground_2_Ground_2__0",
      "primitives": [
        {
          "attributes": {
            "NORMAL": 5,
            "POSITION": 4,
            "TEXCOORD_0": 6
          },
          "indices": 7,
          "material": 1,
          "mode": 4
        }
      ]
    },
    {
      "name": "Spaceship__Spaceship___0",
      "primitives": [
        {
          "attributes": {
            "NORMAL": 9,
            "POSITION": 8,
            "TEXCOORD_0": 10
          },
          "indices": 11,
          "material": 2,
          "mode": 4
        }
      ]
    },
    {
      "name": "Spaceship__Spaceship___0",
      "primitives": [
        {
          "attributes": {
            "NORMAL": 13,
            "POSITION": 12,
            "TEXCOORD_0": 14
          },
          "indices": 15,
          "material": 2,
          "mode": 4
        }
      ]
    },
    {
      "name": "Spaceship__Spaceship___0",
      "primitives": [
        {
          "attributes": {
            "NORMAL": 17,
            "POSITION": 16,
            "TEXCOORD_0": 18
          },
          "indices": 19,
          "material": 2,
          "mode": 4
        }
      ]
    }
  ],
  "nodes": [
    {
      "children": [
        1
      ],
      "matrix": [
        1.0,
        0.0,
        0.0,
        0.0,
        0.0,
        2.220446049250313e-16,
        -1.0,
        0.0,
        0.0,
        1.0,
        2.220446049250313e-16,
        0.0,
        0.0,
        0.0,
        0.0,
        1.0
      ],
      "name": "Sketchfab_model"
    },
    {
      "children": [
        2
      ],
      "matrix": [
        1.0,
        0.0,
        0.0,
        0.0,
        0.0,
        0.0,
        1.0,
        0.0,
        0.0,
        -1.0,
        0.0,
        0.0,
        0.0,
        0.0,
        0.0,
        1.0
      ],
      "name": "2ff0b1e3534c4e859611aaa4a252e8b3.fbx"
    },
    {
      "children": [
        3,
        5,
        7
      ],
      "name": "RootNode"
    },
    {
      "children": [
        4
      ],
      "matrix": [
        1.0,
        0.0,
        0.0,
        0.0,
        0.0,
        1.0,
        0.0,
        0.0,
        0.0,
        0.0,
        1.0,
        0.0,
        -1.1367484331130981,
        -6.151589870452881,
        0.0,
        1.0
      ],
      "name": "Ground_1"
    },
    {
      "mesh": 0,
      "name": "Ground_1_Ground_1__0"
    },
    {
      "children": [
        6
      ],
      "matrix": [
        1.0,
        0.0,
        0.0,
        0.0,
        0.0,
        1.0,
        0.0,
        0.0,
        0.0,
        0.0,
        1.0,
        0.0,
        -1.1367484331130981,
        -6.151589870452881,
        0.0,
        1.0
      ],
      "name": "Ground_2"
    },
    {
      "mesh": 1,
      "name": "Ground_2_Ground_2__0"
    },
    {
      "children": [
        8,
        9,
        10
      ],
      "name": "Spaceship_"
    },
    {
      "mesh": 2,
      "name": "Spaceship__Spaceship___0"
    },
    {
      "mesh": 3,
      "name": "Spaceship__Spaceship___0"
    },
    {
      "mesh": 4,
      "name": "Spaceship__Spaceship___0"
    }
  ],
  "samplers": [
    {
      "magFilter": 9729,
      "minFilter": 9987,
      "wrapS": 10497,
      "wrapT": 10497
    }
  ],
  "scene": 0,
  "scenes": [
    {
      "name": "Sketchfab_Scene",
      "nodes": [
        0
      ]
    }
  ],
  "textures": [
    {
      "sampler": 0,
      "source": 0
    },
    {
      "sampler": 0,
      "source": 1
    },
    {
      "sampler": 0,
      "source": 2
    },
    {
      "sampler": 0,
      "source": 3
    },
    {
      "sampler": 0,
      "source": 4
    },
    {
      "sampler": 0,
      "source": 5
    }
  ]
}
