{
  "accessors": [
    {
      "bufferView": 2,
      "componentType": 5126,
      "count": 240,
      "max": [
        0.9986632466316223,
        5.203428268432617,
        1.7763568394002505e-15
      ],
      "min": [
        -0.9986633658409119,
        1.0283384323120117,
        -1.0983824729919434
      ],
      "type": "VEC3"
    },
    {
      "bufferView": 2,
      "byteOffset": 2880,
      "componentType": 5126,
      "count": 240,
      "max": [
        0.9897823333740234,
        0.3737166225910187,
        -0.13331390917301178
      ],
      "min": [
        -0.9897823333740234,
        0.006152756046503782,
        -0.9999770522117615
      ],
      "type": "VEC3"
    },
    {
      "bufferView": 1,
      "componentType": 5126,
      "count": 240,
      "max": [
        1.0,
        1.0
      ],
      "min": [
        0.0,
        0.0
      ],
      "type": "VEC2"
    },
    {
      "bufferView": 0,
      "componentType": 5125,
      "count": 360,
      "type": "SCALAR"
    },
    {
      "bufferView": 2,
      "byteOffset": 5760,
      "componentType": 5126,
      "count": 8972,
      "max": [
        1.369515061378479,
        0.3436519503593445,
        1.9867366552352905
      ],
      "min": [
        -1.3690729141235352,
        -0.30709701776504517,
        1.4693546295166016
      ],
      "type": "VEC3"
    },
    {
      "bufferView": 2,
      "byteOffset": 113424,
      "componentType": 5126,
      "count": 8972,
      "max": [
        0.999998152256012,
        0.9999816417694092,
        1.0
      ],
      "min": [
        -0.9999982714653015,
        -0.9998267889022827,
        -1.0
      ],
      "type": "VEC3"
    },
    {
      "bufferView": 3,
      "componentType": 5126,
      "count": 8972,
      "max": [
        1.0,
        0.9999982118606567,
        1.0,
        1.0
      ],
      "min": [
        -1.0,
        -0.9999983310699463,
        -1.0,
        -1.0
      ],
      "type": "VEC4"
    },
    {
      "bufferView": 1,
      "byteOffset": 1920,
      "componentType": 5126,
      "count": 8972,
      "max": [
        0.9633228778839111,
        0.9752052426338196
      ],
      "min": [
        0.027782483026385307,
        0.021575063467025757
      ],
      "type": "VEC2"
    },
    {
      "bufferView": 0,
      "byteOffset": 1440,
      "componentType": 5125,
      "count": 22776,
      "type": "SCALAR"
    },
    {
      "bufferView": 2,
      "byteOffset": 221088,
      "componentType": 5126,
      "count": 17078,
      "max": [
        3.2614686489105225,
        1.1280624866485596,
        2.5546321868896484
      ],
      "min": [
        -3.2614686489105225,
        -1.064802646636963,
        -2.5539140701293945
      ],
      "type": "VEC3"
    },
    {
      "bufferView": 2,
      "byteOffset": 426024,
      "componentType": 5126,
      "count": 17078,
      "max": [
        1.0,
        1.0,
        1.0
      ],
      "min": [
        -1.0,
        -1.0,
        -1.0
      ],
      "type": "VEC3"
    },
    {
      "bufferView": 3,
      "byteOffset": 143552,
      "componentType": 5126,
      "count": 17078,
      "max": [
        1.0,
        1.0,
        1.0,
        1.0
      ],
      "min": [
        -1.0,
        -1.0,
        -1.0,
        -1.0
      ],
      "type": "VEC4"
    },
    {
      "bufferView": 1,
      "byteOffset": 73696,
      "componentType": 5126,
      "count": 17078,
      "max": [
        0.9988787770271301,
        0.997545599937439
      ],
      "min": [
        0.0022239964455366135,
        0.006171822547912598
      ],
      "type": "VEC2"
    },
    {
      "bufferView": 0,
      "byteOffset": 92544,
      "componentType": 5125,
      "count": 32628,
      "type": "SCALAR"
    }
  ],
  "asset": {
    "extras": {
      "author": "Star Conflict (https://sketchfab.com/star_conflict)",
      "license": "CC-BY-4.0 (http://creativecommons.org/licenses/by/4.0/)",
      "source": "https://sketchfab.com/3d-models/mjolnir-c8e9020d658649238ee3cfc1c1d64a68",
      "title": "Mjolnir"
    },
    "generator": "Sketchfab-12.67.0",
    "version": "2.0"
  },
  "bufferViews": [
    {
      "buffer": 0,
      "byteLength": 223056,
      "name": "floatBufferViews",
      "target": 34963
    },
    {
      "buffer": 0,
      "byteLength": 210320,
      "byteOffset": 223056,
      "byteStride": 8,
      "name": "floatBufferViews",
      "target": 34962
    },
    {
      "buffer": 0,
      "byteLength": 630960,
      "byteOffset": 433376,
      "byteStride": 12,
      "name": "floatBufferViews",
      "target": 34962
    },
    {
      "buffer": 0,
      "byteLength": 416800,
      "byteOffset": 1064336,
      "byteStride": 16,
      "name": "floatBufferViews",
      "target": 34962
    }
  ],
  "buffers": [
    {
      "byteLength": 1481136,
      "uri": "scene.bin"
    }
  ],
  "images": [
    {
      "uri": "textures/lambert5_baseColor.png"
    },
    {
      "uri": "textures/lambert5_metallicRoughness.png"
    },
    {
      "uri": "textures/lambert5_emissive.png"
    },
    {
      "uri": "textures/lambert5_normal.png"
    },
    {
      "uri": "textures/lambert2_baseColor.png"
    },
    {
      "uri": "textures/lambert2_metallicRoughness.png"
    },
    {
      "uri": "textures/lambert2_emissive.png"
    },
    {
      "uri": "textures/lambert2_normal.png"
    }
  ],
  "materials": [
    {
      "alphaMode": "BLEND",
      "doubleSided": true,
      "name": "phong1",
      "pbrMetallicRoughness": {
        "baseColorFactor": [
          0.1273331985,
          0.1873035592,
          0.3471510851,
          0.6
        ],
        "roughnessFactor": 0.0
      }
    },
    {
      "doubleSided": true,
      "emissiveFactor": [
        1.0,
        1.0,
        1.0
      ],
      "emissiveTexture": {
        "index": 2
      },
      "name": "lambert5",
      "normalTexture": {
        "index": 3
      },
      "occlusionTexture": {
        "index": 1
      },
      "pbrMetallicRoughness": {
        "baseColorTexture": {
          "index": 0
        },
        "metallicRoughnessTexture": {
          "index": 1
        }
      }
    },
    {
      "doubleSided": true,
      "emissiveFactor": [
        1.0,
        1.0,
        1.0
      ],
      "emissiveTexture": {
        "index": 6
      },
      "name": "lambert2",
      "normalTexture": {
        "index": 7
      },
      "occlusionTexture": {
        "index": 5
      },
      "pbrMetallicRoughness": {
        "baseColorTexture": {
          "index": 4
        },
        "metallicRoughnessTexture": {
          "index": 5
        }
      }
    }
  ],
  "meshes": [
    {
      "name": "Object_0",
      "primitives": [
        {
          "attributes": {
            "NORMAL": 1,
            "POSITION": 0,
            "TEXCOORD_0": 2
          },
          "indices": 3,
          "material": 0,
          "mode": 4
        }
      ]
    },
    {
      "name": "Object_1",
      "primitives": [
        {
          "attributes": {
            "NORMAL": 5,
            "POSITION": 4,
            "TANGENT": 6,
            "TEXCOORD_0": 7
          },
          "indices": 8,
          "material": 1,
          "mode": 4
        }
      ]
    },
    {
      "name": "Object_2",
      "primitives": [
        {
          "attributes": {
            "NORMAL": 10,
            "POSITION": 9,
            "TANGENT": 11,
            "TEXCOORD_0": 12
          },
          "indices": 13,
          "material": 2,
          "mode": 4
        }
      ]
    }
  ],
  "nodes": [
    {
      "children": [
        1
      ],
      "matrix": [
        1.0,
        0.0,
        0.0,
        0.0,
        0.0,
        2.220446049250313e-16,
        -1.0,
        0.0,
        0.0,
        1.0,
        2.220446049250313e-16,
        0.0,
        0.0,
        0.0,
        0.0,
        1.0
      ],
      "name": "Sketchfab_model"
    },
    {
      "children": [
        2
      ],
      "matrix": [
        1.0,
        0.0,
        0.0,
        0.0,
        0.0,
        0.0,
        1.0,
        0.0,
        0.0,
        -1.0,
        0.0,
        0.0,
        0.0,
        0.0,
        0.0,
        1.0
      ],
      "name": "373faeb5957d47a3a190202a2c769d31.fbx"
    },
    {
      "children": [
        5,
        6,
        3
      ],
      "name": "RootNode"
    },
    {
      "children": [
        4
      ],
      "matrix": [
        0.11264563501599936,
        0.0,
        0.0,
        0.0,
        0.0,
        2.501235552365685e-17,
        0.11264563501599936,
        0.0,
        0.0,
        -0.11264563501599936,
        2.501235552365685e-17,
        0.0,
        2.1738366800817556e-08,
        0.5363168455570262,
        -0.6246328968916369,
        1.0
      ],
      "name": "pCylinder1"
    },
    {
      "mesh": 0,
      "name": "Object_4"
    },
    {
      "mesh": 1,
      "name": "Object_5"
    },
    {
      "mesh": 2,
      "name": "Object_6"
    }
  ],
  "samplers": [
    {
      "magFilter": 9729,
      "minFilter": 9987,
      "wrapS": 10497,
      "wrapT": 10497
    }
  ],
  "scene": 0,
  "scenes": [
    {
      "name": "Sketchfab_Scene",
      "nodes": [
        0
      ]
    }
  ],
  "textures": [
    {
      "sampler": 0,
      "source": 0
    },
    {
      "sampler": 0,
      "source": 1
    },
    {
      "sampler": 0,
      "source": 2
    },
    {
      "sampler": 0,
      "source": 3
    },
    {
      "sampler": 0,
      "source": 4
    },
    {
      "sampler": 0,
      "source": 5
    },
    {
      "sampler": 0,
      "source": 6
    },
    {
      "sampler": 0,
      "source": 7
    }
  ]
}
